PathFileType	4	(X/Y/Z)	c:/Users/goper/Files/vsCode/490R/osim_files/A01/A01_Fast_03.trc
DataRate	CameraRate	NumFrames	NumMarkers	Units                	OrigDataRate	OrigDataStartFrame	OrigNumFrames
120.00	120.00	7	36	mm	120.0	1010	1154
                Frame#	Time	Mobility_markerset:LPSIS			Mobility_markerset:LASIS			Mobility_markerset:LTH1			Mobility_markerset:LTH2			Mobility_markerset:LTH3			Mobility_markerset:LTH4			Mobility_markerset:LLFE			Mobility_markerset:LMFE			Mobility_markerset:LSH1			Mobility_markerset:LSH2			Mobility_markerset:LSH3			Mobility_markerset:LSH4			Mobility_markerset:LLMAL			Mobility_markerset:LMMAL			Mobility_markerset:LCAL			Mobility_markerset:LMTP5			Mobility_markerset:LTOE			Mobility_markerset:LMTP1			Mobility_markerset:RPSIS			Mobility_markerset:RASIS			Mobility_markerset:RTH1			Mobility_markerset:RTH2			Mobility_markerset:RTH3			Mobility_markerset:RTH4			Mobility_markerset:RLFE			Mobility_markerset:RMFE			Mobility_markerset:RSH1			Mobility_markerset:RSH2			Mobility_markerset:RSH3			Mobility_markerset:RSH4			Mobility_markerset:RLMAL			Mobility_markerset:RMMAL			Mobility_markerset:RCAL			Mobility_markerset:RMTP1			Mobility_markerset:RTOE			Mobility_markerset:RMTP5		
		X1	Y1	Z1	X2	Y2	Z2	X3	Y3	Z3	X4	Y4	Z4	X5	Y5	Z5	X6	Y6	Z6	X7	Y7	Z7	X8	Y8	Z8	X9	Y9	Z9	X10	Y10	Z10	X11	Y11	Z11	X12	Y12	Z12	X13	Y13	Z13	X14	Y14	Z14	X15	Y15	Z15	X16	Y16	Z16	X17	Y17	Z17	X18	Y18	Z18	X19	Y19	Z19	X20	Y20	Z20	X21	Y21	Z21	X22	Y22	Z22	X23	Y23	Z23	X24	Y24	Z24	X25	Y25	Z25	X26	Y26	Z26	X27	Y27	Z27	X28	Y28	Z28	X29	Y29	Z29	X30	Y30	Z30	X31	Y31	Z31	X32	Y32	Z32	X33	Y33	Z33	X34	Y34	Z34	X35	Y35	Z35	X36	Y36	Z36

1010	8.40833	0.00000	0.00000	0.00000	-3812.83936	1013.84564	1298.60107	-4062.11084	1064.24109	1283.78735	0.00000	0.00000	0.00000	0.00000	0.00000	0.00000	0.00000	0.00000	0.00000	-3872.32959	690.17853	1220.73206	0.00000	0.00000	0.00000	0.00000	0.00000	0.00000	-3882.08130	330.22507	1302.90015	0.00000	0.00000	0.00000	-3882.34009	377.04391	1302.18384	-3879.54565	88.42249	1344.49426	-3913.81567	91.16907	1417.16760	-3967.67773	59.18561	1359.05896	-3740.42334	41.97553	1374.72119	-3734.90210	65.33076	1445.14734	-3760.14014	52.61192	1472.49744	-4101.14941	1060.49500	1377.63440	-3926.04492	978.68286	1526.39893	-4089.64453	680.47205	1555.52966	-4091.50757	635.74329	1548.78857	-4143.23291	679.00751	1525.36340	-4137.41260	636.29681	1524.29211	0.00000	0.00000	0.00000	-3862.10669	645.97510	1235.66650	-4278.72412	401.67212	1372.68652	-4303.49219	366.02426	1356.83301	-4260.55176	362.61185	1414.48096	-4286.51025	332.49048	1394.03748	-4370.46875	224.53732	1282.78735	0.00000	0.00000	0.00000	-4357.15820	233.56627	1208.37134	0.00000	0.00000	0.00000	0.00000	0.00000	0.00000	-4410.44287	89.21559	1339.59058
1011	8.41667	0.00000	0.00000	0.00000	-3805.80347	1013.84467	1299.83997	-4055.26953	1063.96472	1286.03149	0.00000	0.00000	0.00000	0.00000	0.00000	0.00000	0.00000	0.00000	0.00000	-3867.83008	690.31885	1222.29822	0.00000	0.00000	0.00000	0.00000	0.00000	0.00000	-3879.75488	330.34955	1303.47253	0.00000	0.00000	0.00000	-3879.69775	377.20297	1302.84998	-3879.28882	88.47336	1344.54846	-3913.60303	91.21450	1417.25769	-3967.59106	59.43197	1359.35095	-3740.25977	41.81663	1374.78711	-3734.74170	64.96474	1445.17664	-3760.41821	52.79620	1472.23596	-4093.96582	1060.22949	1380.10718	-3917.57373	980.16827	1528.02124	-4077.48901	680.20245	1562.63269	-4078.51660	635.22736	1556.46375	-4131.18164	677.53607	1533.12317	-4124.76123	634.76514	1532.53223	0.00000	0.00000	0.00000	-3857.87573	646.00885	1236.97278	-4266.13086	404.44858	1381.68970	-4291.10400	370.64401	1365.67273	-4248.30322	364.39407	1422.69128	-4275.67578	335.91776	1402.03345	-4360.36963	231.17258	1289.55298	0.00000	0.00000	0.00000	-4346.22119	242.10060	1215.54309	0.00000	0.00000	0.00000	0.00000	0.00000	0.00000	-4404.42334	96.92713	1343.05066
1012	8.42500	0.00000	0.00000	0.00000	-3798.46240	1013.60785	1300.88770	-4048.59351	1063.60901	1288.23926	0.00000	0.00000	0.00000	0.00000	0.00000	0.00000	0.00000	0.00000	0.00000	-3863.40747	690.30347	1223.67834	0.00000	0.00000	0.00000	0.00000	0.00000	0.00000	-3877.52051	330.48859	1304.07397	0.00000	0.00000	0.00000	0.00000	0.00000	0.00000	-3879.03223	88.53711	1344.60193	-3913.37109	91.28462	1417.38525	-3967.44629	59.67810	1359.49170	-3740.01465	41.58006	1374.83594	-3734.50439	64.57803	1445.18713	-3760.27832	52.53195	1472.26477	-4087.09717	1059.85852	1382.44373	-3909.28735	981.36212	1529.68250	-4065.08130	679.92944	1569.70239	-4065.36133	634.83228	1563.99744	-4119.08789	676.19440	1540.72351	-4111.94189	633.24341	1540.71204	0.00000	0.00000	0.00000	-3854.56641	645.82404	1239.53149	-4253.14990	407.24948	1390.89880	-4278.70703	374.05957	1374.47607	-4235.53906	366.19559	1430.98279	-4263.56934	338.56171	1410.02637	-4349.76221	237.75270	1296.26099	0.00000	0.00000	0.00000	-4334.58643	250.27156	1222.63403	0.00000	0.00000	0.00000	0.00000	0.00000	0.00000	-4397.14600	105.15736	1347.09338
1013	8.43333	0.00000	0.00000	0.00000	-3791.66406	1013.21295	1302.06726	-4042.07666	1063.29407	1290.46350	0.00000	0.00000	0.00000	0.00000	0.00000	0.00000	0.00000	0.00000	0.00000	-3859.21948	690.45410	1224.90027	0.00000	0.00000	0.00000	0.00000	0.00000	0.00000	-3875.31592	330.57996	1304.62488	0.00000	0.00000	0.00000	-3874.43262	377.50519	1304.22083	-3878.82495	88.60619	1344.65710	-3913.12622	91.32029	1417.50891	-3967.28052	59.92793	1359.46997	-3739.83838	41.38942	1374.86914	-3734.28613	64.22731	1445.23022	-3760.08569	52.30033	1472.29932	-4080.33325	1059.30469	1384.82324	-3901.14966	982.33972	1531.44092	-4052.68628	679.83997	1576.67810	-4052.09741	634.57666	1571.35425	-4106.84619	674.93597	1548.29175	-4099.01318	631.91010	1548.78589	0.00000	0.00000	0.00000	-3850.54150	645.76709	1240.72998	-4239.82129	409.98450	1400.20410	-4265.89648	377.42636	1383.41211	-4222.29248	367.90948	1439.22302	-4250.94531	341.10794	1418.02344	-4338.53613	244.05490	1303.06970	0.00000	0.00000	0.00000	-4322.70410	257.86151	1229.55493	0.00000	0.00000	0.00000	0.00000	0.00000	0.00000	-4388.71533	113.38054	1352.08496
1014	8.44167	0.00000	0.00000	0.00000	-3784.61670	1012.77557	1303.02002	-4035.68652	1063.02783	1292.73596	0.00000	0.00000	0.00000	0.00000	0.00000	0.00000	0.00000	0.00000	0.00000	-3855.08130	690.59149	1226.32629	0.00000	0.00000	0.00000	0.00000	0.00000	0.00000	-3873.17944	330.72473	1305.18640	0.00000	0.00000	0.00000	-3871.87158	377.54181	1304.88489	-3878.63770	88.68775	1344.69873	-3912.91797	91.43889	1417.62842	-3967.15527	60.21146	1359.53479	-3739.70801	41.25977	1374.91113	-3734.10693	63.92429	1445.26465	-3760.20386	52.42902	1473.56201	-4073.76929	1058.68665	1387.24854	-3893.20459	982.99219	1533.18408	-4040.24927	680.00488	1583.51978	-4038.93115	634.71960	1578.55237	-4094.49072	674.14734	1555.64026	-4086.12695	631.00354	1556.66748	0.00000	0.00000	0.00000	-3846.62769	645.77325	1241.95654	-4226.16309	412.53836	1409.54370	-4252.73047	380.61813	1392.34583	-4208.61328	369.61160	1447.42419	-4237.85498	343.61096	1425.91602	-4326.80273	250.15562	1309.98083	0.00000	0.00000	0.00000	-4311.01025	264.65451	1236.32776	0.00000	0.00000	0.00000	0.00000	0.00000	0.00000	-4378.99561	121.02316	1358.18188
1015	8.45000	0.00000	0.00000	0.00000	-3777.76025	1012.30579	1303.99023	-4029.40869	1062.96326	1295.10718	0.00000	0.00000	0.00000	0.00000	0.00000	0.00000	0.00000	0.00000	0.00000	-3851.09302	690.67731	1227.62085	0.00000	0.00000	0.00000	0.00000	0.00000	0.00000	-3871.84595	331.04556	1305.32593	0.00000	0.00000	0.00000	0.00000	0.00000	0.00000	-3878.55444	88.88103	1344.75830	-3912.73682	91.51494	1417.73376	-3967.01196	60.48266	1359.60144	-3739.53882	41.17088	1374.93518	-3733.97070	63.70114	1445.32092	-3760.03223	52.25796	1473.61450	-4067.37549	1058.10217	1389.72009	-3885.46436	983.80676	1534.45715	-4027.76807	680.42029	1590.27112	-4025.86792	635.08685	1585.75415	-4082.14941	673.66681	1562.76428	-4073.29028	630.56104	1564.32263	0.00000	0.00000	0.00000	-3842.72339	645.74969	1243.12561	-4212.28418	415.01849	1418.74756	-4239.16650	383.57950	1401.18970	-4194.70410	371.24103	1455.54480	-4224.42725	345.96207	1433.78784	-4314.63135	255.69250	1317.19849	0.00000	0.00000	0.00000	-4300.12695	270.58237	1243.23291	0.00000	0.00000	0.00000	0.00000	0.00000	0.00000	-4367.75146	126.85804	1365.52332
1016	8.45833	0.00000	0.00000	0.00000	-3770.65308	1011.98242	1304.86060	-4023.28149	1063.01807	1297.52869	0.00000	0.00000	0.00000	0.00000	0.00000	0.00000	0.00000	0.00000	0.00000	-3847.13062	690.84845	1228.84924	0.00000	0.00000	0.00000	0.00000	0.00000	0.00000	-3869.80005	331.14560	1305.85876	0.00000	0.00000	0.00000	0.00000	0.00000	0.00000	-3878.40967	89.02525	1344.79236	-3912.56104	91.61427	1417.86682	-3966.87915	60.77273	1359.70520	-3739.43970	41.07804	1374.93103	-3733.84839	63.45324	1445.35840	-3759.90649	52.11171	1473.67761	-4061.18750	1057.60132	1392.27344	-3877.91016	984.13660	1536.34998	-4015.31616	681.07361	1596.87451	-4013.03687	635.76306	1592.79492	-4069.76611	673.52576	1569.84644	-4060.50464	630.54303	1571.70764	0.00000	0.00000	0.00000	-3839.01392	645.81720	1244.24207	-4198.07764	417.40585	1427.77283	-4225.33691	386.48401	1409.92712	-4180.49756	372.90598	1463.63599	-4209.12939	346.72223	1441.56482	-4302.46582	260.30881	1325.17249	0.00000	0.00000	0.00000	-4289.86719	276.17535	1251.18091	0.00000	0.00000	0.00000	0.00000	0.00000	0.00000	-4355.25244	130.77528	1373.26245
